# xmcd CD database file
#
# Track frame offsets:
#	150
#	17660
#	36821
#	45757
#	61563
#	64545
#	98919
#	113636
#	144347
#	170254
#	193533
#	214766
#
# Disc length: 3253 seconds
#
# Revision: 8
# Processed by: cddbd v1.5.2PL0 Copyright (c) Steve Scherf et al.
# Submitted via: CDex 1.51
#
DISCID=8e0cb30c
DTITLE=Gaetano Donizetti - Oeuvres pour piano seul  (Pietro Spada, piano)  [CD 2-2]
DYEAR=1900
DGENRE=Classique
TTITLE0=Valzer in Do maggiore
TTITLE1=Valzer in Do maggiore
TTITLE2=Valzer in La maggiore
TTITLE3=Valzer in La maggiore
TTITLE4=Valzer in Do maggiore
TTITLE5=Gran Valzer in La maggiore
TTITLE6=Giuseppina, Polka-Mazurka
TTITLE7=Sinfonia in Re maggiore
TTITLE8=Capriccio in Sinfonia
TTITLE9=Sinfonia in Re maggiore
TTITLE10=Sinfonia in Do maggiore
TTITLE11=Sinfonia ''La Partenza''
EXTD=
EXTT0=
EXTT1=
EXTT2=
EXTT3=
EXTT4=
EXTT5=
EXTT6=
EXTT7=
EXTT8=
EXTT9=
EXTT10=
EXTT11=
PLAYORDER=
